# Marble track tile: base
o base
v -1.000000 0.000000 -1.000000
v 1.000000 0.000000 -1.000000
v 1.000000 1.000000 -1.000000
v -1.000000 1.000000 -1.000000
v -1.000000 0.000000 1.000000
v 1.000000 0.000000 1.000000
v 1.000000 1.000000 1.000000
v -1.000000 1.000000 1.000000
v 1.060000 0.500000 -0.270000
v 1.000000 0.500000 -0.270000
v 1.060000 0.540000 -0.280718
v 1.000000 0.540000 -0.280718
v 1.060000 0.569282 -0.310000
v 1.000000 0.569282 -0.310000
v 1.060000 0.580000 -0.350000
v 1.000000 0.580000 -0.350000
v 1.060000 0.569282 -0.390000
v 1.000000 0.569282 -0.390000
v 1.060000 0.540000 -0.419282
v 1.000000 0.540000 -0.419282
v 1.060000 0.500000 -0.430000
v 1.000000 0.500000 -0.430000
v 1.060000 0.460000 -0.419282
v 1.000000 0.460000 -0.419282
v 1.060000 0.430718 -0.390000
v 1.000000 0.430718 -0.390000
v 1.060000 0.420000 -0.350000
v 1.000000 0.420000 -0.350000
v 1.060000 0.430718 -0.310000
v 1.000000 0.430718 -0.310000
v 1.060000 0.460000 -0.280718
v 1.000000 0.460000 -0.280718
v 1.060000 0.500000 -0.350000
v 1.000000 0.500000 -0.350000
v 1.060000 0.500000 0.430000
v 1.000000 0.500000 0.430000
v 1.060000 0.540000 0.419282
v 1.000000 0.540000 0.419282
v 1.060000 0.569282 0.390000
v 1.000000 0.569282 0.390000
v 1.060000 0.580000 0.350000
v 1.000000 0.580000 0.350000
v 1.060000 0.569282 0.310000
v 1.000000 0.569282 0.310000
v 1.060000 0.540000 0.280718
v 1.000000 0.540000 0.280718
v 1.060000 0.500000 0.270000
v 1.000000 0.500000 0.270000
v 1.060000 0.460000 0.280718
v 1.000000 0.460000 0.280718
v 1.060000 0.430718 0.310000
v 1.000000 0.430718 0.310000
v 1.060000 0.420000 0.350000
v 1.000000 0.420000 0.350000
v 1.060000 0.430718 0.390000
v 1.000000 0.430718 0.390000
v 1.060000 0.460000 0.419282
v 1.000000 0.460000 0.419282
v 1.060000 0.500000 0.350000
v 1.000000 0.500000 0.350000
v -1.060000 0.500000 0.270000
v -1.000000 0.500000 0.270000
v -1.060000 0.540000 0.280718
v -1.000000 0.540000 0.280718
v -1.060000 0.569282 0.310000
v -1.000000 0.569282 0.310000
v -1.060000 0.580000 0.350000
v -1.000000 0.580000 0.350000
v -1.060000 0.569282 0.390000
v -1.000000 0.569282 0.390000
v -1.060000 0.540000 0.419282
v -1.000000 0.540000 0.419282
v -1.060000 0.500000 0.430000
v -1.000000 0.500000 0.430000
v -1.060000 0.460000 0.419282
v -1.000000 0.460000 0.419282
v -1.060000 0.430718 0.390000
v -1.000000 0.430718 0.390000
v -1.060000 0.420000 0.350000
v -1.000000 0.420000 0.350000
v -1.060000 0.430718 0.310000
v -1.000000 0.430718 0.310000
v -1.060000 0.460000 0.280718
v -1.000000 0.460000 0.280718
v -1.060000 0.500000 0.350000
v -1.000000 0.500000 0.350000
v -1.060000 0.500000 -0.430000
v -1.000000 0.500000 -0.430000
v -1.060000 0.540000 -0.419282
v -1.000000 0.540000 -0.419282
v -1.060000 0.569282 -0.390000
v -1.000000 0.569282 -0.390000
v -1.060000 0.580000 -0.350000
v -1.000000 0.580000 -0.350000
v -1.060000 0.569282 -0.310000
v -1.000000 0.569282 -0.310000
v -1.060000 0.540000 -0.280718
v -1.000000 0.540000 -0.280718
v -1.060000 0.500000 -0.270000
v -1.000000 0.500000 -0.270000
v -1.060000 0.460000 -0.280718
v -1.000000 0.460000 -0.280718
v -1.060000 0.430718 -0.310000
v -1.000000 0.430718 -0.310000
v -1.060000 0.420000 -0.350000
v -1.000000 0.420000 -0.350000
v -1.060000 0.430718 -0.390000
v -1.000000 0.430718 -0.390000
v -1.060000 0.460000 -0.419282
v -1.000000 0.460000 -0.419282
v -1.060000 0.500000 -0.350000
v -1.000000 0.500000 -0.350000
v 0.270000 0.500000 1.060000
v 0.270000 0.500000 1.000000
v 0.280718 0.540000 1.060000
v 0.280718 0.540000 1.000000
v 0.310000 0.569282 1.060000
v 0.310000 0.569282 1.000000
v 0.350000 0.580000 1.060000
v 0.350000 0.580000 1.000000
v 0.390000 0.569282 1.060000
v 0.390000 0.569282 1.000000
v 0.419282 0.540000 1.060000
v 0.419282 0.540000 1.000000
v 0.430000 0.500000 1.060000
v 0.430000 0.500000 1.000000
v 0.419282 0.460000 1.060000
v 0.419282 0.460000 1.000000
v 0.390000 0.430718 1.060000
v 0.390000 0.430718 1.000000
v 0.350000 0.420000 1.060000
v 0.350000 0.420000 1.000000
v 0.310000 0.430718 1.060000
v 0.310000 0.430718 1.000000
v 0.280718 0.460000 1.060000
v 0.280718 0.460000 1.000000
v 0.350000 0.500000 1.060000
v 0.350000 0.500000 1.000000
v -0.430000 0.500000 1.060000
v -0.430000 0.500000 1.000000
v -0.419282 0.540000 1.060000
v -0.419282 0.540000 1.000000
v -0.390000 0.569282 1.060000
v -0.390000 0.569282 1.000000
v -0.350000 0.580000 1.060000
v -0.350000 0.580000 1.000000
v -0.310000 0.569282 1.060000
v -0.310000 0.569282 1.000000
v -0.280718 0.540000 1.060000
v -0.280718 0.540000 1.000000
v -0.270000 0.500000 1.060000
v -0.270000 0.500000 1.000000
v -0.280718 0.460000 1.060000
v -0.280718 0.460000 1.000000
v -0.310000 0.430718 1.060000
v -0.310000 0.430718 1.000000
v -0.350000 0.420000 1.060000
v -0.350000 0.420000 1.000000
v -0.390000 0.430718 1.060000
v -0.390000 0.430718 1.000000
v -0.419282 0.460000 1.060000
v -0.419282 0.460000 1.000000
v -0.350000 0.500000 1.060000
v -0.350000 0.500000 1.000000
v -0.270000 0.500000 -1.060000
v -0.270000 0.500000 -1.000000
v -0.280718 0.540000 -1.060000
v -0.280718 0.540000 -1.000000
v -0.310000 0.569282 -1.060000
v -0.310000 0.569282 -1.000000
v -0.350000 0.580000 -1.060000
v -0.350000 0.580000 -1.000000
v -0.390000 0.569282 -1.060000
v -0.390000 0.569282 -1.000000
v -0.419282 0.540000 -1.060000
v -0.419282 0.540000 -1.000000
v -0.430000 0.500000 -1.060000
v -0.430000 0.500000 -1.000000
v -0.419282 0.460000 -1.060000
v -0.419282 0.460000 -1.000000
v -0.390000 0.430718 -1.060000
v -0.390000 0.430718 -1.000000
v -0.350000 0.420000 -1.060000
v -0.350000 0.420000 -1.000000
v -0.310000 0.430718 -1.060000
v -0.310000 0.430718 -1.000000
v -0.280718 0.460000 -1.060000
v -0.280718 0.460000 -1.000000
v -0.350000 0.500000 -1.060000
v -0.350000 0.500000 -1.000000
v 0.430000 0.500000 -1.060000
v 0.430000 0.500000 -1.000000
v 0.419282 0.540000 -1.060000
v 0.419282 0.540000 -1.000000
v 0.390000 0.569282 -1.060000
v 0.390000 0.569282 -1.000000
v 0.350000 0.580000 -1.060000
v 0.350000 0.580000 -1.000000
v 0.310000 0.569282 -1.060000
v 0.310000 0.569282 -1.000000
v 0.280718 0.540000 -1.060000
v 0.280718 0.540000 -1.000000
v 0.270000 0.500000 -1.060000
v 0.270000 0.500000 -1.000000
v 0.280718 0.460000 -1.060000
v 0.280718 0.460000 -1.000000
v 0.310000 0.430718 -1.060000
v 0.310000 0.430718 -1.000000
v 0.350000 0.420000 -1.060000
v 0.350000 0.420000 -1.000000
v 0.390000 0.430718 -1.060000
v 0.390000 0.430718 -1.000000
v 0.419282 0.460000 -1.060000
v 0.419282 0.460000 -1.000000
v 0.350000 0.500000 -1.060000
v 0.350000 0.500000 -1.000000
vn 0.000000 0.000000 -1.000000
vn 0.000000 0.000000 1.000000
vn 0.000000 -1.000000 0.000000
vn 0.000000 1.000000 0.000000
vn -1.000000 0.000000 0.000000
vn 1.000000 0.000000 0.000000
vn 1.000000 0.000000 0.000000
vn 1.000000 0.000000 0.000000
vn 1.000000 0.000000 0.000000
vn 1.000000 0.000000 0.000000
vn 1.000000 0.000000 0.000000
vn 1.000000 0.000000 0.000000
vn 1.000000 0.000000 0.000000
vn 1.000000 0.000000 0.000000
vn 1.000000 0.000000 0.000000
vn 1.000000 0.000000 0.000000
vn 1.000000 0.000000 0.000000
vn 1.000000 0.000000 0.000000
vn -1.000000 0.000000 0.000000
vn -1.000000 0.000000 0.000000
vn -1.000000 0.000000 0.000000
vn -1.000000 0.000000 0.000000
vn -1.000000 0.000000 0.000000
vn -1.000000 0.000000 0.000000
vn -1.000000 0.000000 0.000000
vn -1.000000 0.000000 0.000000
vn -1.000000 0.000000 0.000000
vn -1.000000 0.000000 0.000000
vn -1.000000 0.000000 0.000000
vn -1.000000 0.000000 0.000000
vn 0.000000 0.258819 0.965926
vn 0.000000 0.707107 0.707107
vn 0.000000 0.965926 0.258819
vn 0.000000 0.965926 -0.258819
vn 0.000000 0.707107 -0.707107
vn 0.000000 0.258819 -0.965926
vn -0.000000 -0.258819 -0.965926
vn -0.000000 -0.707107 -0.707107
vn -0.000000 -0.965926 -0.258819
vn 0.000000 -0.965926 0.258819
vn 0.000000 -0.707107 0.707107
vn 0.000000 -0.258819 0.965926
vn 1.000000 0.000000 0.000000
vn 1.000000 0.000000 0.000000
vn 1.000000 0.000000 0.000000
vn 1.000000 0.000000 0.000000
vn 1.000000 0.000000 0.000000
vn 1.000000 0.000000 0.000000
vn 1.000000 0.000000 0.000000
vn 1.000000 0.000000 0.000000
vn 1.000000 0.000000 0.000000
vn 1.000000 0.000000 0.000000
vn 1.000000 0.000000 0.000000
vn 1.000000 0.000000 0.000000
vn -1.000000 0.000000 0.000000
vn -1.000000 0.000000 0.000000
vn -1.000000 0.000000 0.000000
vn -1.000000 0.000000 0.000000
vn -1.000000 0.000000 0.000000
vn -1.000000 0.000000 0.000000
vn -1.000000 0.000000 0.000000
vn -1.000000 0.000000 0.000000
vn -1.000000 0.000000 0.000000
vn -1.000000 0.000000 0.000000
vn -1.000000 0.000000 0.000000
vn -1.000000 0.000000 0.000000
vn 0.000000 0.258819 0.965926
vn 0.000000 0.707107 0.707107
vn 0.000000 0.965926 0.258819
vn 0.000000 0.965926 -0.258819
vn 0.000000 0.707107 -0.707107
vn 0.000000 0.258819 -0.965926
vn -0.000000 -0.258819 -0.965926
vn -0.000000 -0.707107 -0.707107
vn -0.000000 -0.965926 -0.258819
vn 0.000000 -0.965926 0.258819
vn 0.000000 -0.707107 0.707107
vn 0.000000 -0.258819 0.965926
vn -1.000000 0.000000 0.000000
vn -1.000000 0.000000 0.000000
vn -1.000000 0.000000 0.000000
vn -1.000000 0.000000 0.000000
vn -1.000000 0.000000 0.000000
vn -1.000000 0.000000 0.000000
vn -1.000000 0.000000 0.000000
vn -1.000000 0.000000 0.000000
vn -1.000000 0.000000 0.000000
vn -1.000000 0.000000 0.000000
vn -1.000000 0.000000 0.000000
vn -1.000000 0.000000 0.000000
vn 1.000000 0.000000 0.000000
vn 1.000000 0.000000 0.000000
vn 1.000000 0.000000 0.000000
vn 1.000000 0.000000 0.000000
vn 1.000000 0.000000 0.000000
vn 1.000000 0.000000 0.000000
vn 1.000000 0.000000 0.000000
vn 1.000000 0.000000 0.000000
vn 1.000000 0.000000 0.000000
vn 1.000000 0.000000 0.000000
vn 1.000000 0.000000 0.000000
vn 1.000000 0.000000 0.000000
vn 0.000000 0.258819 -0.965926
vn 0.000000 0.707107 -0.707107
vn 0.000000 0.965926 -0.258819
vn 0.000000 0.965926 0.258819
vn 0.000000 0.707107 0.707107
vn 0.000000 0.258819 0.965926
vn -0.000000 -0.258819 0.965926
vn -0.000000 -0.707107 0.707107
vn -0.000000 -0.965926 0.258819
vn 0.000000 -0.965926 -0.258819
vn 0.000000 -0.707107 -0.707107
vn 0.000000 -0.258819 -0.965926
vn -1.000000 0.000000 0.000000
vn -1.000000 0.000000 0.000000
vn -1.000000 0.000000 0.000000
vn -1.000000 0.000000 0.000000
vn -1.000000 0.000000 0.000000
vn -1.000000 0.000000 0.000000
vn -1.000000 0.000000 0.000000
vn -1.000000 0.000000 0.000000
vn -1.000000 0.000000 0.000000
vn -1.000000 0.000000 0.000000
vn -1.000000 0.000000 0.000000
vn -1.000000 0.000000 0.000000
vn 1.000000 0.000000 0.000000
vn 1.000000 0.000000 0.000000
vn 1.000000 0.000000 0.000000
vn 1.000000 0.000000 0.000000
vn 1.000000 0.000000 0.000000
vn 1.000000 0.000000 0.000000
vn 1.000000 0.000000 0.000000
vn 1.000000 0.000000 0.000000
vn 1.000000 0.000000 0.000000
vn 1.000000 0.000000 0.000000
vn 1.000000 0.000000 0.000000
vn 1.000000 0.000000 0.000000
vn 0.000000 0.258819 -0.965926
vn 0.000000 0.707107 -0.707107
vn 0.000000 0.965926 -0.258819
vn 0.000000 0.965926 0.258819
vn 0.000000 0.707107 0.707107
vn 0.000000 0.258819 0.965926
vn -0.000000 -0.258819 0.965926
vn -0.000000 -0.707107 0.707107
vn -0.000000 -0.965926 0.258819
vn 0.000000 -0.965926 -0.258819
vn 0.000000 -0.707107 -0.707107
vn 0.000000 -0.258819 -0.965926
vn 0.000000 0.000000 1.000000
vn 0.000000 0.000000 1.000000
vn 0.000000 0.000000 1.000000
vn 0.000000 0.000000 1.000000
vn 0.000000 0.000000 1.000000
vn 0.000000 0.000000 1.000000
vn 0.000000 0.000000 1.000000
vn 0.000000 0.000000 1.000000
vn 0.000000 0.000000 1.000000
vn 0.000000 0.000000 1.000000
vn 0.000000 0.000000 1.000000
vn 0.000000 0.000000 1.000000
vn 0.000000 0.000000 -1.000000
vn 0.000000 0.000000 -1.000000
vn 0.000000 0.000000 -1.000000
vn 0.000000 0.000000 -1.000000
vn 0.000000 0.000000 -1.000000
vn 0.000000 0.000000 -1.000000
vn 0.000000 0.000000 -1.000000
vn 0.000000 0.000000 -1.000000
vn 0.000000 0.000000 -1.000000
vn 0.000000 0.000000 -1.000000
vn 0.000000 0.000000 -1.000000
vn 0.000000 0.000000 -1.000000
vn -0.965926 0.258819 0.000000
vn -0.707107 0.707107 0.000000
vn -0.258819 0.965926 0.000000
vn 0.258819 0.965926 -0.000000
vn 0.707107 0.707107 -0.000000
vn 0.965926 0.258819 -0.000000
vn 0.965926 -0.258819 0.000000
vn 0.707107 -0.707107 0.000000
vn 0.258819 -0.965926 0.000000
vn -0.258819 -0.965926 0.000000
vn -0.707107 -0.707107 0.000000
vn -0.965926 -0.258819 0.000000
vn 0.000000 0.000000 1.000000
vn 0.000000 0.000000 1.000000
vn 0.000000 0.000000 1.000000
vn 0.000000 0.000000 1.000000
vn 0.000000 0.000000 1.000000
vn 0.000000 0.000000 1.000000
vn 0.000000 0.000000 1.000000
vn 0.000000 0.000000 1.000000
vn 0.000000 0.000000 1.000000
vn 0.000000 0.000000 1.000000
vn 0.000000 0.000000 1.000000
vn 0.000000 0.000000 1.000000
vn 0.000000 0.000000 -1.000000
vn 0.000000 0.000000 -1.000000
vn 0.000000 0.000000 -1.000000
vn 0.000000 0.000000 -1.000000
vn 0.000000 0.000000 -1.000000
vn 0.000000 0.000000 -1.000000
vn 0.000000 0.000000 -1.000000
vn 0.000000 0.000000 -1.000000
vn 0.000000 0.000000 -1.000000
vn 0.000000 0.000000 -1.000000
vn 0.000000 0.000000 -1.000000
vn 0.000000 0.000000 -1.000000
vn -0.965926 0.258819 0.000000
vn -0.707107 0.707107 0.000000
vn -0.258819 0.965926 0.000000
vn 0.258819 0.965926 -0.000000
vn 0.707107 0.707107 -0.000000
vn 0.965926 0.258819 -0.000000
vn 0.965926 -0.258819 0.000000
vn 0.707107 -0.707107 0.000000
vn 0.258819 -0.965926 0.000000
vn -0.258819 -0.965926 0.000000
vn -0.707107 -0.707107 0.000000
vn -0.965926 -0.258819 0.000000
vn 0.000000 0.000000 -1.000000
vn 0.000000 0.000000 -1.000000
vn 0.000000 0.000000 -1.000000
vn 0.000000 0.000000 -1.000000
vn 0.000000 0.000000 -1.000000
vn 0.000000 0.000000 -1.000000
vn 0.000000 0.000000 -1.000000
vn 0.000000 0.000000 -1.000000
vn 0.000000 0.000000 -1.000000
vn 0.000000 0.000000 -1.000000
vn 0.000000 0.000000 -1.000000
vn 0.000000 0.000000 -1.000000
vn 0.000000 0.000000 1.000000
vn 0.000000 0.000000 1.000000
vn 0.000000 0.000000 1.000000
vn 0.000000 0.000000 1.000000
vn 0.000000 0.000000 1.000000
vn 0.000000 0.000000 1.000000
vn 0.000000 0.000000 1.000000
vn 0.000000 0.000000 1.000000
vn 0.000000 0.000000 1.000000
vn 0.000000 0.000000 1.000000
vn 0.000000 0.000000 1.000000
vn 0.000000 0.000000 1.000000
vn 0.965926 0.258819 0.000000
vn 0.707107 0.707107 0.000000
vn 0.258819 0.965926 0.000000
vn -0.258819 0.965926 0.000000
vn -0.707107 0.707107 0.000000
vn -0.965926 0.258819 0.000000
vn -0.965926 -0.258819 -0.000000
vn -0.707107 -0.707107 -0.000000
vn -0.258819 -0.965926 -0.000000
vn 0.258819 -0.965926 0.000000
vn 0.707107 -0.707107 0.000000
vn 0.965926 -0.258819 0.000000
vn 0.000000 0.000000 -1.000000
vn 0.000000 0.000000 -1.000000
vn 0.000000 0.000000 -1.000000
vn 0.000000 0.000000 -1.000000
vn 0.000000 0.000000 -1.000000
vn 0.000000 0.000000 -1.000000
vn 0.000000 0.000000 -1.000000
vn 0.000000 0.000000 -1.000000
vn 0.000000 0.000000 -1.000000
vn 0.000000 0.000000 -1.000000
vn 0.000000 0.000000 -1.000000
vn 0.000000 0.000000 -1.000000
vn 0.000000 0.000000 1.000000
vn 0.000000 0.000000 1.000000
vn 0.000000 0.000000 1.000000
vn 0.000000 0.000000 1.000000
vn 0.000000 0.000000 1.000000
vn 0.000000 0.000000 1.000000
vn 0.000000 0.000000 1.000000
vn 0.000000 0.000000 1.000000
vn 0.000000 0.000000 1.000000
vn 0.000000 0.000000 1.000000
vn 0.000000 0.000000 1.000000
vn 0.000000 0.000000 1.000000
vn 0.965926 0.258819 0.000000
vn 0.707107 0.707107 0.000000
vn 0.258819 0.965926 0.000000
vn -0.258819 0.965926 0.000000
vn -0.707107 0.707107 0.000000
vn -0.965926 0.258819 0.000000
vn -0.965926 -0.258819 -0.000000
vn -0.707107 -0.707107 -0.000000
vn -0.258819 -0.965926 -0.000000
vn 0.258819 -0.965926 0.000000
vn 0.707107 -0.707107 0.000000
vn 0.965926 -0.258819 0.000000
f 1//1 4//1 3//1 2//1
f 5//2 6//2 7//2 8//2
f 1//3 2//3 6//3 5//3
f 4//4 8//4 7//4 3//4
f 1//5 5//5 8//5 4//5
f 2//6 3//6 7//6 6//6
f 33//7 11//7 9//7
f 33//8 13//8 11//8
f 33//9 15//9 13//9
f 33//10 17//10 15//10
f 33//11 19//11 17//11
f 33//12 21//12 19//12
f 33//13 23//13 21//13
f 33//14 25//14 23//14
f 33//15 27//15 25//15
f 33//16 29//16 27//16
f 33//17 31//17 29//17
f 33//18 9//18 31//18
f 34//19 10//19 12//19
f 34//20 12//20 14//20
f 34//21 14//21 16//21
f 34//22 16//22 18//22
f 34//23 18//23 20//23
f 34//24 20//24 22//24
f 34//25 22//25 24//25
f 34//26 24//26 26//26
f 34//27 26//27 28//27
f 34//28 28//28 30//28
f 34//29 30//29 32//29
f 34//30 32//30 10//30
f 10//31 9//31 11//31 12//31
f 12//32 11//32 13//32 14//32
f 14//33 13//33 15//33 16//33
f 16//34 15//34 17//34 18//34
f 18//35 17//35 19//35 20//35
f 20//36 19//36 21//36 22//36
f 22//37 21//37 23//37 24//37
f 24//38 23//38 25//38 26//38
f 26//39 25//39 27//39 28//39
f 28//40 27//40 29//40 30//40
f 30//41 29//41 31//41 32//41
f 32//42 31//42 9//42 10//42
f 59//43 37//43 35//43
f 59//44 39//44 37//44
f 59//45 41//45 39//45
f 59//46 43//46 41//46
f 59//47 45//47 43//47
f 59//48 47//48 45//48
f 59//49 49//49 47//49
f 59//50 51//50 49//50
f 59//51 53//51 51//51
f 59//52 55//52 53//52
f 59//53 57//53 55//53
f 59//54 35//54 57//54
f 60//55 36//55 38//55
f 60//56 38//56 40//56
f 60//57 40//57 42//57
f 60//58 42//58 44//58
f 60//59 44//59 46//59
f 60//60 46//60 48//60
f 60//61 48//61 50//61
f 60//62 50//62 52//62
f 60//63 52//63 54//63
f 60//64 54//64 56//64
f 60//65 56//65 58//65
f 60//66 58//66 36//66
f 36//67 35//67 37//67 38//67
f 38//68 37//68 39//68 40//68
f 40//69 39//69 41//69 42//69
f 42//70 41//70 43//70 44//70
f 44//71 43//71 45//71 46//71
f 46//72 45//72 47//72 48//72
f 48//73 47//73 49//73 50//73
f 50//74 49//74 51//74 52//74
f 52//75 51//75 53//75 54//75
f 54//76 53//76 55//76 56//76
f 56//77 55//77 57//77 58//77
f 58//78 57//78 35//78 36//78
f 85//79 63//79 61//79
f 85//80 65//80 63//80
f 85//81 67//81 65//81
f 85//82 69//82 67//82
f 85//83 71//83 69//83
f 85//84 73//84 71//84
f 85//85 75//85 73//85
f 85//86 77//86 75//86
f 85//87 79//87 77//87
f 85//88 81//88 79//88
f 85//89 83//89 81//89
f 85//90 61//90 83//90
f 86//91 62//91 64//91
f 86//92 64//92 66//92
f 86//93 66//93 68//93
f 86//94 68//94 70//94
f 86//95 70//95 72//95
f 86//96 72//96 74//96
f 86//97 74//97 76//97
f 86//98 76//98 78//98
f 86//99 78//99 80//99
f 86//100 80//100 82//100
f 86//101 82//101 84//101
f 86//102 84//102 62//102
f 62//103 61//103 63//103 64//103
f 64//104 63//104 65//104 66//104
f 66//105 65//105 67//105 68//105
f 68//106 67//106 69//106 70//106
f 70//107 69//107 71//107 72//107
f 72//108 71//108 73//108 74//108
f 74//109 73//109 75//109 76//109
f 76//110 75//110 77//110 78//110
f 78//111 77//111 79//111 80//111
f 80//112 79//112 81//112 82//112
f 82//113 81//113 83//113 84//113
f 84//114 83//114 61//114 62//114
f 111//115 89//115 87//115
f 111//116 91//116 89//116
f 111//117 93//117 91//117
f 111//118 95//118 93//118
f 111//119 97//119 95//119
f 111//120 99//120 97//120
f 111//121 101//121 99//121
f 111//122 103//122 101//122
f 111//123 105//123 103//123
f 111//124 107//124 105//124
f 111//125 109//125 107//125
f 111//126 87//126 109//126
f 112//127 88//127 90//127
f 112//128 90//128 92//128
f 112//129 92//129 94//129
f 112//130 94//130 96//130
f 112//131 96//131 98//131
f 112//132 98//132 100//132
f 112//133 100//133 102//133
f 112//134 102//134 104//134
f 112//135 104//135 106//135
f 112//136 106//136 108//136
f 112//137 108//137 110//137
f 112//138 110//138 88//138
f 88//139 87//139 89//139 90//139
f 90//140 89//140 91//140 92//140
f 92//141 91//141 93//141 94//141
f 94//142 93//142 95//142 96//142
f 96//143 95//143 97//143 98//143
f 98//144 97//144 99//144 100//144
f 100//145 99//145 101//145 102//145
f 102//146 101//146 103//146 104//146
f 104//147 103//147 105//147 106//147
f 106//148 105//148 107//148 108//148
f 108//149 107//149 109//149 110//149
f 110//150 109//150 87//150 88//150
f 137//151 115//151 113//151
f 137//152 117//152 115//152
f 137//153 119//153 117//153
f 137//154 121//154 119//154
f 137//155 123//155 121//155
f 137//156 125//156 123//156
f 137//157 127//157 125//157
f 137//158 129//158 127//158
f 137//159 131//159 129//159
f 137//160 133//160 131//160
f 137//161 135//161 133//161
f 137//162 113//162 135//162
f 138//163 114//163 116//163
f 138//164 116//164 118//164
f 138//165 118//165 120//165
f 138//166 120//166 122//166
f 138//167 122//167 124//167
f 138//168 124//168 126//168
f 138//169 126//169 128//169
f 138//170 128//170 130//170
f 138//171 130//171 132//171
f 138//172 132//172 134//172
f 138//173 134//173 136//173
f 138//174 136//174 114//174
f 114//175 113//175 115//175 116//175
f 116//176 115//176 117//176 118//176
f 118//177 117//177 119//177 120//177
f 120//178 119//178 121//178 122//178
f 122//179 121//179 123//179 124//179
f 124//180 123//180 125//180 126//180
f 126//181 125//181 127//181 128//181
f 128//182 127//182 129//182 130//182
f 130//183 129//183 131//183 132//183
f 132//184 131//184 133//184 134//184
f 134//185 133//185 135//185 136//185
f 136//186 135//186 113//186 114//186
f 163//187 141//187 139//187
f 163//188 143//188 141//188
f 163//189 145//189 143//189
f 163//190 147//190 145//190
f 163//191 149//191 147//191
f 163//192 151//192 149//192
f 163//193 153//193 151//193
f 163//194 155//194 153//194
f 163//195 157//195 155//195
f 163//196 159//196 157//196
f 163//197 161//197 159//197
f 163//198 139//198 161//198
f 164//199 140//199 142//199
f 164//200 142//200 144//200
f 164//201 144//201 146//201
f 164//202 146//202 148//202
f 164//203 148//203 150//203
f 164//204 150//204 152//204
f 164//205 152//205 154//205
f 164//206 154//206 156//206
f 164//207 156//207 158//207
f 164//208 158//208 160//208
f 164//209 160//209 162//209
f 164//210 162//210 140//210
f 140//211 139//211 141//211 142//211
f 142//212 141//212 143//212 144//212
f 144//213 143//213 145//213 146//213
f 146//214 145//214 147//214 148//214
f 148//215 147//215 149//215 150//215
f 150//216 149//216 151//216 152//216
f 152//217 151//217 153//217 154//217
f 154//218 153//218 155//218 156//218
f 156//219 155//219 157//219 158//219
f 158//220 157//220 159//220 160//220
f 160//221 159//221 161//221 162//221
f 162//222 161//222 139//222 140//222
f 189//223 167//223 165//223
f 189//224 169//224 167//224
f 189//225 171//225 169//225
f 189//226 173//226 171//226
f 189//227 175//227 173//227
f 189//228 177//228 175//228
f 189//229 179//229 177//229
f 189//230 181//230 179//230
f 189//231 183//231 181//231
f 189//232 185//232 183//232
f 189//233 187//233 185//233
f 189//234 165//234 187//234
f 190//235 166//235 168//235
f 190//236 168//236 170//236
f 190//237 170//237 172//237
f 190//238 172//238 174//238
f 190//239 174//239 176//239
f 190//240 176//240 178//240
f 190//241 178//241 180//241
f 190//242 180//242 182//242
f 190//243 182//243 184//243
f 190//244 184//244 186//244
f 190//245 186//245 188//245
f 190//246 188//246 166//246
f 166//247 165//247 167//247 168//247
f 168//248 167//248 169//248 170//248
f 170//249 169//249 171//249 172//249
f 172//250 171//250 173//250 174//250
f 174//251 173//251 175//251 176//251
f 176//252 175//252 177//252 178//252
f 178//253 177//253 179//253 180//253
f 180//254 179//254 181//254 182//254
f 182//255 181//255 183//255 184//255
f 184//256 183//256 185//256 186//256
f 186//257 185//257 187//257 188//257
f 188//258 187//258 165//258 166//258
f 215//259 193//259 191//259
f 215//260 195//260 193//260
f 215//261 197//261 195//261
f 215//262 199//262 197//262
f 215//263 201//263 199//263
f 215//264 203//264 201//264
f 215//265 205//265 203//265
f 215//266 207//266 205//266
f 215//267 209//267 207//267
f 215//268 211//268 209//268
f 215//269 213//269 211//269
f 215//270 191//270 213//270
f 216//271 192//271 194//271
f 216//272 194//272 196//272
f 216//273 196//273 198//273
f 216//274 198//274 200//274
f 216//275 200//275 202//275
f 216//276 202//276 204//276
f 216//277 204//277 206//277
f 216//278 206//278 208//278
f 216//279 208//279 210//279
f 216//280 210//280 212//280
f 216//281 212//281 214//281
f 216//282 214//282 192//282
f 192//283 191//283 193//283 194//283
f 194//284 193//284 195//284 196//284
f 196//285 195//285 197//285 198//285
f 198//286 197//286 199//286 200//286
f 200//287 199//287 201//287 202//287
f 202//288 201//288 203//288 204//288
f 204//289 203//289 205//289 206//289
f 206//290 205//290 207//290 208//290
f 208//291 207//291 209//291 210//291
f 210//292 209//292 211//292 212//292
f 212//293 211//293 213//293 214//293
f 214//294 213//294 191//294 192//294
